<svg width="28" height="24" viewBox="0 0 28 24" fill="none" xmlns="http://www.w3.org/2000/svg">
<path fill-rule="evenodd" clip-rule="evenodd" d="M0.882346 11.8524C0.87888 11.5112 0.976895 11.183 1.15483 10.9399C1.33277 10.6968 1.57605 10.5588 1.83115 10.5562L24.518 10.3257L18.3817 2.29319C18.1986 2.05347 18.0938 1.72689 18.0903 1.38528C18.0869 1.04367 18.185 0.715029 18.3632 0.471642C18.5413 0.228256 18.7849 0.0900637 19.0403 0.0874684C19.2958 0.084873 19.5421 0.218087 19.7252 0.457803L27.5248 10.6708C27.6155 10.7894 27.6881 10.9306 27.7381 11.0864C27.7882 11.2422 27.8149 11.4095 27.8166 11.5787C27.8183 11.7479 27.7951 11.9157 27.7482 12.0725C27.7012 12.2293 27.6316 12.372 27.5433 12.4924L19.9528 22.8618C19.7747 23.1052 19.5311 23.2434 19.2756 23.2459C19.0202 23.2485 18.7739 23.1153 18.5908 22.8756C18.4077 22.6359 18.3029 22.3093 18.2995 21.9677C18.296 21.6261 18.3941 21.2975 18.5723 21.0541L24.5441 12.8985L1.85729 13.129C1.60219 13.1316 1.35615 12.9986 1.17332 12.7592C0.990478 12.5197 0.885813 12.1936 0.882346 11.8524Z" fill="white"/>
</svg>
